<?xml version="1.0" encoding="utf-8" standalone="no"?>
<!DOCTYPE svg PUBLIC "-//W3C//DTD SVG 1.1//EN"
  "http://www.w3.org/Graphics/SVG/1.1/DTD/svg11.dtd">
<!-- Created with matplotlib (https://matplotlib.org/) -->
<svg height="345.6pt" version="1.1" viewBox="0 0 460.8 345.6" width="460.8pt" xmlns="http://www.w3.org/2000/svg" xmlns:xlink="http://www.w3.org/1999/xlink">
 <defs>
  <style type="text/css">
*{stroke-linecap:butt;stroke-linejoin:round;}
  </style>
 </defs>
 <g id="figure_1">
  <g id="patch_1">
   <path d="M 0 345.6 
L 460.8 345.6 
L 460.8 0 
L 0 0 
z
" style="fill:#ffffff;"/>
  </g>
  <g id="axes_1">
   <g id="patch_2">
    <path d="M 57.6 307.584 
L 414.72 307.584 
L 414.72 41.472 
L 57.6 41.472 
z
" style="fill:#ffffff;"/>
   </g>
   <g id="matplotlib.axis_1">
    <g id="xtick_1">
     <g id="line2d_1">
      <defs>
       <path d="M 0 0 
L 0 3.5 
" id="m3740267ed2" style="stroke:#000000;stroke-width:0.8;"/>
      </defs>
      <g>
       <use style="stroke:#000000;stroke-width:0.8;" x="97.373772" xlink:href="#m3740267ed2" y="307.584"/>
      </g>
     </g>
     <g id="text_1">
      <!-- −2 -->
      <defs>
       <path d="M 10.59375 35.5 
L 73.1875 35.5 
L 73.1875 27.203125 
L 10.59375 27.203125 
z
" id="DejaVuSans-8722"/>
       <path d="M 19.1875 8.296875 
L 53.609375 8.296875 
L 53.609375 0 
L 7.328125 0 
L 7.328125 8.296875 
Q 12.9375 14.109375 22.625 23.890625 
Q 32.328125 33.6875 34.8125 36.53125 
Q 39.546875 41.84375 41.421875 45.53125 
Q 43.3125 49.21875 43.3125 52.78125 
Q 43.3125 58.59375 39.234375 62.25 
Q 35.15625 65.921875 28.609375 65.921875 
Q 23.96875 65.921875 18.8125 64.3125 
Q 13.671875 62.703125 7.8125 59.421875 
L 7.8125 69.390625 
Q 13.765625 71.78125 18.9375 73 
Q 24.125 74.21875 28.421875 74.21875 
Q 39.75 74.21875 46.484375 68.546875 
Q 53.21875 62.890625 53.21875 53.421875 
Q 53.21875 48.921875 51.53125 44.890625 
Q 49.859375 40.875 45.40625 35.40625 
Q 44.1875 33.984375 37.640625 27.21875 
Q 31.109375 20.453125 19.1875 8.296875 
z
" id="DejaVuSans-50"/>
      </defs>
      <g transform="translate(90.002678 322.182437)scale(0.1 -0.1)">
       <use xlink:href="#DejaVuSans-8722"/>
       <use x="83.789062" xlink:href="#DejaVuSans-50"/>
      </g>
     </g>
    </g>
    <g id="xtick_2">
     <g id="line2d_2">
      <g>
       <use style="stroke:#000000;stroke-width:0.8;" x="144.455861" xlink:href="#m3740267ed2" y="307.584"/>
      </g>
     </g>
     <g id="text_2">
      <!-- 0 -->
      <defs>
       <path d="M 31.78125 66.40625 
Q 24.171875 66.40625 20.328125 58.90625 
Q 16.5 51.421875 16.5 36.375 
Q 16.5 21.390625 20.328125 13.890625 
Q 24.171875 6.390625 31.78125 6.390625 
Q 39.453125 6.390625 43.28125 13.890625 
Q 47.125 21.390625 47.125 36.375 
Q 47.125 51.421875 43.28125 58.90625 
Q 39.453125 66.40625 31.78125 66.40625 
z
M 31.78125 74.21875 
Q 44.046875 74.21875 50.515625 64.515625 
Q 56.984375 54.828125 56.984375 36.375 
Q 56.984375 17.96875 50.515625 8.265625 
Q 44.046875 -1.421875 31.78125 -1.421875 
Q 19.53125 -1.421875 13.0625 8.265625 
Q 6.59375 17.96875 6.59375 36.375 
Q 6.59375 54.828125 13.0625 64.515625 
Q 19.53125 74.21875 31.78125 74.21875 
z
" id="DejaVuSans-48"/>
      </defs>
      <g transform="translate(141.274611 322.182437)scale(0.1 -0.1)">
       <use xlink:href="#DejaVuSans-48"/>
      </g>
     </g>
    </g>
    <g id="xtick_3">
     <g id="line2d_3">
      <g>
       <use style="stroke:#000000;stroke-width:0.8;" x="191.53795" xlink:href="#m3740267ed2" y="307.584"/>
      </g>
     </g>
     <g id="text_3">
      <!-- 2 -->
      <g transform="translate(188.3567 322.182437)scale(0.1 -0.1)">
       <use xlink:href="#DejaVuSans-50"/>
      </g>
     </g>
    </g>
    <g id="xtick_4">
     <g id="line2d_4">
      <g>
       <use style="stroke:#000000;stroke-width:0.8;" x="238.620039" xlink:href="#m3740267ed2" y="307.584"/>
      </g>
     </g>
     <g id="text_4">
      <!-- 4 -->
      <defs>
       <path d="M 37.796875 64.3125 
L 12.890625 25.390625 
L 37.796875 25.390625 
z
M 35.203125 72.90625 
L 47.609375 72.90625 
L 47.609375 25.390625 
L 58.015625 25.390625 
L 58.015625 17.1875 
L 47.609375 17.1875 
L 47.609375 0 
L 37.796875 0 
L 37.796875 17.1875 
L 4.890625 17.1875 
L 4.890625 26.703125 
z
" id="DejaVuSans-52"/>
      </defs>
      <g transform="translate(235.438789 322.182437)scale(0.1 -0.1)">
       <use xlink:href="#DejaVuSans-52"/>
      </g>
     </g>
    </g>
    <g id="xtick_5">
     <g id="line2d_5">
      <g>
       <use style="stroke:#000000;stroke-width:0.8;" x="285.702128" xlink:href="#m3740267ed2" y="307.584"/>
      </g>
     </g>
     <g id="text_5">
      <!-- 6 -->
      <defs>
       <path d="M 33.015625 40.375 
Q 26.375 40.375 22.484375 35.828125 
Q 18.609375 31.296875 18.609375 23.390625 
Q 18.609375 15.53125 22.484375 10.953125 
Q 26.375 6.390625 33.015625 6.390625 
Q 39.65625 6.390625 43.53125 10.953125 
Q 47.40625 15.53125 47.40625 23.390625 
Q 47.40625 31.296875 43.53125 35.828125 
Q 39.65625 40.375 33.015625 40.375 
z
M 52.59375 71.296875 
L 52.59375 62.3125 
Q 48.875 64.0625 45.09375 64.984375 
Q 41.3125 65.921875 37.59375 65.921875 
Q 27.828125 65.921875 22.671875 59.328125 
Q 17.53125 52.734375 16.796875 39.40625 
Q 19.671875 43.65625 24.015625 45.921875 
Q 28.375 48.1875 33.59375 48.1875 
Q 44.578125 48.1875 50.953125 41.515625 
Q 57.328125 34.859375 57.328125 23.390625 
Q 57.328125 12.15625 50.6875 5.359375 
Q 44.046875 -1.421875 33.015625 -1.421875 
Q 20.359375 -1.421875 13.671875 8.265625 
Q 6.984375 17.96875 6.984375 36.375 
Q 6.984375 53.65625 15.1875 63.9375 
Q 23.390625 74.21875 37.203125 74.21875 
Q 40.921875 74.21875 44.703125 73.484375 
Q 48.484375 72.75 52.59375 71.296875 
z
" id="DejaVuSans-54"/>
      </defs>
      <g transform="translate(282.520878 322.182437)scale(0.1 -0.1)">
       <use xlink:href="#DejaVuSans-54"/>
      </g>
     </g>
    </g>
    <g id="xtick_6">
     <g id="line2d_6">
      <g>
       <use style="stroke:#000000;stroke-width:0.8;" x="332.784217" xlink:href="#m3740267ed2" y="307.584"/>
      </g>
     </g>
     <g id="text_6">
      <!-- 8 -->
      <defs>
       <path d="M 31.78125 34.625 
Q 24.75 34.625 20.71875 30.859375 
Q 16.703125 27.09375 16.703125 20.515625 
Q 16.703125 13.921875 20.71875 10.15625 
Q 24.75 6.390625 31.78125 6.390625 
Q 38.8125 6.390625 42.859375 10.171875 
Q 46.921875 13.96875 46.921875 20.515625 
Q 46.921875 27.09375 42.890625 30.859375 
Q 38.875 34.625 31.78125 34.625 
z
M 21.921875 38.8125 
Q 15.578125 40.375 12.03125 44.71875 
Q 8.5 49.078125 8.5 55.328125 
Q 8.5 64.0625 14.71875 69.140625 
Q 20.953125 74.21875 31.78125 74.21875 
Q 42.671875 74.21875 48.875 69.140625 
Q 55.078125 64.0625 55.078125 55.328125 
Q 55.078125 49.078125 51.53125 44.71875 
Q 48 40.375 41.703125 38.8125 
Q 48.828125 37.15625 52.796875 32.3125 
Q 56.78125 27.484375 56.78125 20.515625 
Q 56.78125 9.90625 50.3125 4.234375 
Q 43.84375 -1.421875 31.78125 -1.421875 
Q 19.734375 -1.421875 13.25 4.234375 
Q 6.78125 9.90625 6.78125 20.515625 
Q 6.78125 27.484375 10.78125 32.3125 
Q 14.796875 37.15625 21.921875 38.8125 
z
M 18.3125 54.390625 
Q 18.3125 48.734375 21.84375 45.5625 
Q 25.390625 42.390625 31.78125 42.390625 
Q 38.140625 42.390625 41.71875 45.5625 
Q 45.3125 48.734375 45.3125 54.390625 
Q 45.3125 60.0625 41.71875 63.234375 
Q 38.140625 66.40625 31.78125 66.40625 
Q 25.390625 66.40625 21.84375 63.234375 
Q 18.3125 60.0625 18.3125 54.390625 
z
" id="DejaVuSans-56"/>
      </defs>
      <g transform="translate(329.602967 322.182437)scale(0.1 -0.1)">
       <use xlink:href="#DejaVuSans-56"/>
      </g>
     </g>
    </g>
    <g id="xtick_7">
     <g id="line2d_7">
      <g>
       <use style="stroke:#000000;stroke-width:0.8;" x="379.866306" xlink:href="#m3740267ed2" y="307.584"/>
      </g>
     </g>
     <g id="text_7">
      <!-- 10 -->
      <defs>
       <path d="M 12.40625 8.296875 
L 28.515625 8.296875 
L 28.515625 63.921875 
L 10.984375 60.40625 
L 10.984375 69.390625 
L 28.421875 72.90625 
L 38.28125 72.90625 
L 38.28125 8.296875 
L 54.390625 8.296875 
L 54.390625 0 
L 12.40625 0 
z
" id="DejaVuSans-49"/>
      </defs>
      <g transform="translate(373.503806 322.182437)scale(0.1 -0.1)">
       <use xlink:href="#DejaVuSans-49"/>
       <use x="63.623047" xlink:href="#DejaVuSans-48"/>
      </g>
     </g>
    </g>
    <g id="text_8">
     <!-- W -->
     <defs>
      <path d="M 3.328125 72.90625 
L 13.28125 72.90625 
L 28.609375 11.28125 
L 43.890625 72.90625 
L 54.984375 72.90625 
L 70.3125 11.28125 
L 85.59375 72.90625 
L 95.609375 72.90625 
L 77.296875 0 
L 64.890625 0 
L 49.515625 63.28125 
L 33.984375 0 
L 21.578125 0 
z
" id="DejaVuSans-87"/>
     </defs>
     <g transform="translate(231.21625 335.860562)scale(0.1 -0.1)">
      <use xlink:href="#DejaVuSans-87"/>
     </g>
    </g>
   </g>
   <g id="matplotlib.axis_2">
    <g id="ytick_1">
     <g id="line2d_8">
      <defs>
       <path d="M 0 0 
L -3.5 0 
" id="m5a710b13b6" style="stroke:#000000;stroke-width:0.8;"/>
      </defs>
      <g>
       <use style="stroke:#000000;stroke-width:0.8;" x="57.6" xlink:href="#m5a710b13b6" y="295.488"/>
      </g>
     </g>
     <g id="text_9">
      <!-- 0 -->
      <g transform="translate(44.2375 299.287219)scale(0.1 -0.1)">
       <use xlink:href="#DejaVuSans-48"/>
      </g>
     </g>
    </g>
    <g id="ytick_2">
     <g id="line2d_9">
      <g>
       <use style="stroke:#000000;stroke-width:0.8;" x="57.6" xlink:href="#m5a710b13b6" y="246.888001"/>
      </g>
     </g>
     <g id="text_10">
      <!-- 5 -->
      <defs>
       <path d="M 10.796875 72.90625 
L 49.515625 72.90625 
L 49.515625 64.59375 
L 19.828125 64.59375 
L 19.828125 46.734375 
Q 21.96875 47.46875 24.109375 47.828125 
Q 26.265625 48.1875 28.421875 48.1875 
Q 40.625 48.1875 47.75 41.5 
Q 54.890625 34.8125 54.890625 23.390625 
Q 54.890625 11.625 47.5625 5.09375 
Q 40.234375 -1.421875 26.90625 -1.421875 
Q 22.3125 -1.421875 17.546875 -0.640625 
Q 12.796875 0.140625 7.71875 1.703125 
L 7.71875 11.625 
Q 12.109375 9.234375 16.796875 8.0625 
Q 21.484375 6.890625 26.703125 6.890625 
Q 35.15625 6.890625 40.078125 11.328125 
Q 45.015625 15.765625 45.015625 23.390625 
Q 45.015625 31 40.078125 35.4375 
Q 35.15625 39.890625 26.703125 39.890625 
Q 22.75 39.890625 18.8125 39.015625 
Q 14.890625 38.140625 10.796875 36.28125 
z
" id="DejaVuSans-53"/>
      </defs>
      <g transform="translate(44.2375 250.68722)scale(0.1 -0.1)">
       <use xlink:href="#DejaVuSans-53"/>
      </g>
     </g>
    </g>
    <g id="ytick_3">
     <g id="line2d_10">
      <g>
       <use style="stroke:#000000;stroke-width:0.8;" x="57.6" xlink:href="#m5a710b13b6" y="198.288002"/>
      </g>
     </g>
     <g id="text_11">
      <!-- 10 -->
      <g transform="translate(37.875 202.08722)scale(0.1 -0.1)">
       <use xlink:href="#DejaVuSans-49"/>
       <use x="63.623047" xlink:href="#DejaVuSans-48"/>
      </g>
     </g>
    </g>
    <g id="ytick_4">
     <g id="line2d_11">
      <g>
       <use style="stroke:#000000;stroke-width:0.8;" x="57.6" xlink:href="#m5a710b13b6" y="149.688002"/>
      </g>
     </g>
     <g id="text_12">
      <!-- 15 -->
      <g transform="translate(37.875 153.487221)scale(0.1 -0.1)">
       <use xlink:href="#DejaVuSans-49"/>
       <use x="63.623047" xlink:href="#DejaVuSans-53"/>
      </g>
     </g>
    </g>
    <g id="ytick_5">
     <g id="line2d_12">
      <g>
       <use style="stroke:#000000;stroke-width:0.8;" x="57.6" xlink:href="#m5a710b13b6" y="101.088003"/>
      </g>
     </g>
     <g id="text_13">
      <!-- 20 -->
      <g transform="translate(37.875 104.887222)scale(0.1 -0.1)">
       <use xlink:href="#DejaVuSans-50"/>
       <use x="63.623047" xlink:href="#DejaVuSans-48"/>
      </g>
     </g>
    </g>
    <g id="ytick_6">
     <g id="line2d_13">
      <g>
       <use style="stroke:#000000;stroke-width:0.8;" x="57.6" xlink:href="#m5a710b13b6" y="52.488004"/>
      </g>
     </g>
     <g id="text_14">
      <!-- 25 -->
      <g transform="translate(37.875 56.287223)scale(0.1 -0.1)">
       <use xlink:href="#DejaVuSans-50"/>
       <use x="63.623047" xlink:href="#DejaVuSans-53"/>
      </g>
     </g>
    </g>
    <g id="text_15">
     <!-- Cost -->
     <defs>
      <path d="M 64.40625 67.28125 
L 64.40625 56.890625 
Q 59.421875 61.53125 53.78125 63.8125 
Q 48.140625 66.109375 41.796875 66.109375 
Q 29.296875 66.109375 22.65625 58.46875 
Q 16.015625 50.828125 16.015625 36.375 
Q 16.015625 21.96875 22.65625 14.328125 
Q 29.296875 6.6875 41.796875 6.6875 
Q 48.140625 6.6875 53.78125 8.984375 
Q 59.421875 11.28125 64.40625 15.921875 
L 64.40625 5.609375 
Q 59.234375 2.09375 53.4375 0.328125 
Q 47.65625 -1.421875 41.21875 -1.421875 
Q 24.65625 -1.421875 15.125 8.703125 
Q 5.609375 18.84375 5.609375 36.375 
Q 5.609375 53.953125 15.125 64.078125 
Q 24.65625 74.21875 41.21875 74.21875 
Q 47.75 74.21875 53.53125 72.484375 
Q 59.328125 70.75 64.40625 67.28125 
z
" id="DejaVuSans-67"/>
      <path d="M 30.609375 48.390625 
Q 23.390625 48.390625 19.1875 42.75 
Q 14.984375 37.109375 14.984375 27.296875 
Q 14.984375 17.484375 19.15625 11.84375 
Q 23.34375 6.203125 30.609375 6.203125 
Q 37.796875 6.203125 41.984375 11.859375 
Q 46.1875 17.53125 46.1875 27.296875 
Q 46.1875 37.015625 41.984375 42.703125 
Q 37.796875 48.390625 30.609375 48.390625 
z
M 30.609375 56 
Q 42.328125 56 49.015625 48.375 
Q 55.71875 40.765625 55.71875 27.296875 
Q 55.71875 13.875 49.015625 6.21875 
Q 42.328125 -1.421875 30.609375 -1.421875 
Q 18.84375 -1.421875 12.171875 6.21875 
Q 5.515625 13.875 5.515625 27.296875 
Q 5.515625 40.765625 12.171875 48.375 
Q 18.84375 56 30.609375 56 
z
" id="DejaVuSans-111"/>
      <path d="M 44.28125 53.078125 
L 44.28125 44.578125 
Q 40.484375 46.53125 36.375 47.5 
Q 32.28125 48.484375 27.875 48.484375 
Q 21.1875 48.484375 17.84375 46.4375 
Q 14.5 44.390625 14.5 40.28125 
Q 14.5 37.15625 16.890625 35.375 
Q 19.28125 33.59375 26.515625 31.984375 
L 29.59375 31.296875 
Q 39.15625 29.25 43.1875 25.515625 
Q 47.21875 21.78125 47.21875 15.09375 
Q 47.21875 7.46875 41.1875 3.015625 
Q 35.15625 -1.421875 24.609375 -1.421875 
Q 20.21875 -1.421875 15.453125 -0.5625 
Q 10.6875 0.296875 5.421875 2 
L 5.421875 11.28125 
Q 10.40625 8.6875 15.234375 7.390625 
Q 20.0625 6.109375 24.8125 6.109375 
Q 31.15625 6.109375 34.5625 8.28125 
Q 37.984375 10.453125 37.984375 14.40625 
Q 37.984375 18.0625 35.515625 20.015625 
Q 33.0625 21.96875 24.703125 23.78125 
L 21.578125 24.515625 
Q 13.234375 26.265625 9.515625 29.90625 
Q 5.8125 33.546875 5.8125 39.890625 
Q 5.8125 47.609375 11.28125 51.796875 
Q 16.75 56 26.8125 56 
Q 31.78125 56 36.171875 55.265625 
Q 40.578125 54.546875 44.28125 53.078125 
z
" id="DejaVuSans-115"/>
      <path d="M 18.3125 70.21875 
L 18.3125 54.6875 
L 36.8125 54.6875 
L 36.8125 47.703125 
L 18.3125 47.703125 
L 18.3125 18.015625 
Q 18.3125 11.328125 20.140625 9.421875 
Q 21.96875 7.515625 27.59375 7.515625 
L 36.8125 7.515625 
L 36.8125 0 
L 27.59375 0 
Q 17.1875 0 13.234375 3.875 
Q 9.28125 7.765625 9.28125 18.015625 
L 9.28125 47.703125 
L 2.6875 47.703125 
L 2.6875 54.6875 
L 9.28125 54.6875 
L 9.28125 70.21875 
z
" id="DejaVuSans-116"/>
     </defs>
     <g transform="translate(31.795313 185.643625)rotate(-90)scale(0.1 -0.1)">
      <use xlink:href="#DejaVuSans-67"/>
      <use x="69.824219" xlink:href="#DejaVuSans-111"/>
      <use x="131.005859" xlink:href="#DejaVuSans-115"/>
      <use x="183.105469" xlink:href="#DejaVuSans-116"/>
     </g>
    </g>
   </g>
   <g id="line2d_14">
    <defs>
     <path d="M 0 3 
C 0.795609 3 1.55874 2.683901 2.12132 2.12132 
C 2.683901 1.55874 3 0.795609 3 0 
C 3 -0.795609 2.683901 -1.55874 2.12132 -2.12132 
C 1.55874 -2.683901 0.795609 -3 0 -3 
C -0.795609 -3 -1.55874 -2.683901 -2.12132 -2.12132 
C -2.683901 -1.55874 -3 -0.795609 -3 0 
C -3 0.795609 -2.683901 1.55874 -2.12132 2.12132 
C -1.55874 2.683901 -0.795609 3 0 3 
z
" id="mdb0e9cc5a1" style="stroke:#ff0000;"/>
    </defs>
    <g clip-path="url(#p1fd7e17329)">
     <use style="fill:#ff0000;stroke:#ff0000;" x="222.141308" xlink:href="#mdb0e9cc5a1" y="278.964"/>
     <use style="fill:#ff0000;stroke:#ff0000;" x="248.036457" xlink:href="#mdb0e9cc5a1" y="268.6608"/>
     <use style="fill:#ff0000;stroke:#ff0000;" x="273.931606" xlink:href="#mdb0e9cc5a1" y="275.1732"/>
     <use style="fill:#ff0000;stroke:#ff0000;" x="302.41627" xlink:href="#mdb0e9cc5a1" y="264.481201"/>
     <use style="fill:#ff0000;stroke:#ff0000;" x="307.5953" xlink:href="#mdb0e9cc5a1" y="279.02232"/>
     <use style="fill:#ff0000;stroke:#ff0000;" x="242.574935" xlink:href="#mdb0e9cc5a1" y="280.19844"/>
     <use style="fill:#ff0000;stroke:#ff0000;" x="374.663736" xlink:href="#mdb0e9cc5a1" y="262.770481"/>
     <use style="fill:#ff0000;stroke:#ff0000;" x="289.986598" xlink:href="#mdb0e9cc5a1" y="270.25488"/>
     <use style="fill:#ff0000;stroke:#ff0000;" x="323.132389" xlink:href="#mdb0e9cc5a1" y="270.8964"/>
     <use style="fill:#ff0000;stroke:#ff0000;" x="195.469304" xlink:href="#mdb0e9cc5a1" y="283.61988"/>
     <use style="fill:#ff0000;stroke:#ff0000;" x="310.231897" xlink:href="#mdb0e9cc5a1" y="268.00956"/>
     <use style="fill:#ff0000;stroke:#ff0000;" x="398.487273" xlink:href="#mdb0e9cc5a1" y="261.808201"/>
     <use style="fill:#ff0000;stroke:#ff0000;" x="269.529431" xlink:href="#mdb0e9cc5a1" y="279.45"/>
     <use style="fill:#ff0000;stroke:#ff0000;" x="332.713594" xlink:href="#mdb0e9cc5a1" y="267.26112"/>
     <use style="fill:#ff0000;stroke:#ff0000;" x="277.556927" xlink:href="#mdb0e9cc5a1" y="271.9656"/>
     <use style="fill:#ff0000;stroke:#ff0000;" x="362.681344" xlink:href="#mdb0e9cc5a1" y="266.9112"/>
     <use style="fill:#ff0000;stroke:#ff0000;" x="217.433099" xlink:href="#mdb0e9cc5a1" y="282.852"/>
    </g>
   </g>
   <g id="line2d_15">
    <path clip-path="url(#p1fd7e17329)" d="M 222.141308 280.445057 
L 248.036457 277.563609 
L 273.931606 274.682161 
L 302.41627 271.512568 
L 307.5953 270.936279 
L 242.574935 278.171333 
L 374.663736 263.473329 
L 289.986598 272.895663 
L 323.132389 269.20741 
L 195.469304 283.412948 
L 310.231897 270.642895 
L 398.487273 260.822397 
L 269.529431 275.172007 
L 332.713594 268.141274 
L 277.556927 274.278758 
L 362.681344 264.806653 
L 217.433099 280.968957 
" style="fill:none;stroke:#1f77b4;stroke-linecap:square;stroke-width:1.5;"/>
   </g>
   <g id="line2d_16">
    <g clip-path="url(#p1fd7e17329)">
     <use style="fill:#ff0000;stroke:#ff0000;" x="73.832727" xlink:href="#mdb0e9cc5a1" y="53.568"/>
     <use style="fill:#ff0000;stroke:#ff0000;" x="76.186832" xlink:href="#mdb0e9cc5a1" y="65.512787"/>
     <use style="fill:#ff0000;stroke:#ff0000;" x="78.540936" xlink:href="#mdb0e9cc5a1" y="77.155196"/>
     <use style="fill:#ff0000;stroke:#ff0000;" x="80.895041" xlink:href="#mdb0e9cc5a1" y="88.495189"/>
     <use style="fill:#ff0000;stroke:#ff0000;" x="83.249145" xlink:href="#mdb0e9cc5a1" y="99.532823"/>
     <use style="fill:#ff0000;stroke:#ff0000;" x="85.60325" xlink:href="#mdb0e9cc5a1" y="110.267987"/>
     <use style="fill:#ff0000;stroke:#ff0000;" x="87.957354" xlink:href="#mdb0e9cc5a1" y="120.700772"/>
     <use style="fill:#ff0000;stroke:#ff0000;" x="90.311458" xlink:href="#mdb0e9cc5a1" y="130.831216"/>
     <use style="fill:#ff0000;stroke:#ff0000;" x="92.665563" xlink:href="#mdb0e9cc5a1" y="140.65919"/>
     <use style="fill:#ff0000;stroke:#ff0000;" x="95.019667" xlink:href="#mdb0e9cc5a1" y="150.184822"/>
     <use style="fill:#ff0000;stroke:#ff0000;" x="97.373772" xlink:href="#mdb0e9cc5a1" y="159.408002"/>
     <use style="fill:#ff0000;stroke:#ff0000;" x="99.727876" xlink:href="#mdb0e9cc5a1" y="168.328804"/>
     <use style="fill:#ff0000;stroke:#ff0000;" x="102.081981" xlink:href="#mdb0e9cc5a1" y="176.94721"/>
     <use style="fill:#ff0000;stroke:#ff0000;" x="104.436085" xlink:href="#mdb0e9cc5a1" y="185.263182"/>
     <use style="fill:#ff0000;stroke:#ff0000;" x="106.79019" xlink:href="#mdb0e9cc5a1" y="193.276794"/>
     <use style="fill:#ff0000;stroke:#ff0000;" x="109.144294" xlink:href="#mdb0e9cc5a1" y="200.988001"/>
     <use style="fill:#ff0000;stroke:#ff0000;" x="111.498399" xlink:href="#mdb0e9cc5a1" y="208.396801"/>
     <use style="fill:#ff0000;stroke:#ff0000;" x="113.852503" xlink:href="#mdb0e9cc5a1" y="215.503196"/>
     <use style="fill:#ff0000;stroke:#ff0000;" x="116.206607" xlink:href="#mdb0e9cc5a1" y="222.307189"/>
     <use style="fill:#ff0000;stroke:#ff0000;" x="118.560712" xlink:href="#mdb0e9cc5a1" y="228.8088"/>
     <use style="fill:#ff0000;stroke:#ff0000;" x="120.914816" xlink:href="#mdb0e9cc5a1" y="235.008"/>
     <use style="fill:#ff0000;stroke:#ff0000;" x="123.268921" xlink:href="#mdb0e9cc5a1" y="240.904799"/>
     <use style="fill:#ff0000;stroke:#ff0000;" x="125.623025" xlink:href="#mdb0e9cc5a1" y="246.499201"/>
     <use style="fill:#ff0000;stroke:#ff0000;" x="127.97713" xlink:href="#mdb0e9cc5a1" y="251.791198"/>
     <use style="fill:#ff0000;stroke:#ff0000;" x="130.331234" xlink:href="#mdb0e9cc5a1" y="256.780797"/>
     <use style="fill:#ff0000;stroke:#ff0000;" x="132.685339" xlink:href="#mdb0e9cc5a1" y="261.468001"/>
     <use style="fill:#ff0000;stroke:#ff0000;" x="135.039443" xlink:href="#mdb0e9cc5a1" y="265.852803"/>
     <use style="fill:#ff0000;stroke:#ff0000;" x="137.393548" xlink:href="#mdb0e9cc5a1" y="269.935199"/>
     <use style="fill:#ff0000;stroke:#ff0000;" x="139.747652" xlink:href="#mdb0e9cc5a1" y="273.7152"/>
     <use style="fill:#ff0000;stroke:#ff0000;" x="142.101756" xlink:href="#mdb0e9cc5a1" y="277.192802"/>
     <use style="fill:#ff0000;stroke:#ff0000;" x="144.455861" xlink:href="#mdb0e9cc5a1" y="280.368"/>
     <use style="fill:#ff0000;stroke:#ff0000;" x="146.809965" xlink:href="#mdb0e9cc5a1" y="283.2408"/>
     <use style="fill:#ff0000;stroke:#ff0000;" x="149.16407" xlink:href="#mdb0e9cc5a1" y="285.811199"/>
     <use style="fill:#ff0000;stroke:#ff0000;" x="151.518174" xlink:href="#mdb0e9cc5a1" y="288.079201"/>
     <use style="fill:#ff0000;stroke:#ff0000;" x="153.872279" xlink:href="#mdb0e9cc5a1" y="290.0448"/>
     <use style="fill:#ff0000;stroke:#ff0000;" x="156.226383" xlink:href="#mdb0e9cc5a1" y="291.708"/>
     <use style="fill:#ff0000;stroke:#ff0000;" x="158.580488" xlink:href="#mdb0e9cc5a1" y="293.0688"/>
     <use style="fill:#ff0000;stroke:#ff0000;" x="160.934592" xlink:href="#mdb0e9cc5a1" y="294.1272"/>
     <use style="fill:#ff0000;stroke:#ff0000;" x="163.288697" xlink:href="#mdb0e9cc5a1" y="294.8832"/>
     <use style="fill:#ff0000;stroke:#ff0000;" x="165.642801" xlink:href="#mdb0e9cc5a1" y="295.3368"/>
     <use style="fill:#ff0000;stroke:#ff0000;" x="167.996905" xlink:href="#mdb0e9cc5a1" y="295.488"/>
     <use style="fill:#ff0000;stroke:#ff0000;" x="170.35101" xlink:href="#mdb0e9cc5a1" y="295.3368"/>
     <use style="fill:#ff0000;stroke:#ff0000;" x="172.705114" xlink:href="#mdb0e9cc5a1" y="294.8832"/>
     <use style="fill:#ff0000;stroke:#ff0000;" x="175.059219" xlink:href="#mdb0e9cc5a1" y="294.1272"/>
     <use style="fill:#ff0000;stroke:#ff0000;" x="177.413323" xlink:href="#mdb0e9cc5a1" y="293.068801"/>
     <use style="fill:#ff0000;stroke:#ff0000;" x="179.767428" xlink:href="#mdb0e9cc5a1" y="291.708"/>
     <use style="fill:#ff0000;stroke:#ff0000;" x="182.121532" xlink:href="#mdb0e9cc5a1" y="290.044799"/>
     <use style="fill:#ff0000;stroke:#ff0000;" x="184.475637" xlink:href="#mdb0e9cc5a1" y="288.079198"/>
     <use style="fill:#ff0000;stroke:#ff0000;" x="186.829741" xlink:href="#mdb0e9cc5a1" y="285.811202"/>
     <use style="fill:#ff0000;stroke:#ff0000;" x="189.183846" xlink:href="#mdb0e9cc5a1" y="283.240801"/>
     <use style="fill:#ff0000;stroke:#ff0000;" x="191.53795" xlink:href="#mdb0e9cc5a1" y="280.368"/>
     <use style="fill:#ff0000;stroke:#ff0000;" x="193.892055" xlink:href="#mdb0e9cc5a1" y="277.192802"/>
     <use style="fill:#ff0000;stroke:#ff0000;" x="196.246159" xlink:href="#mdb0e9cc5a1" y="273.715196"/>
     <use style="fill:#ff0000;stroke:#ff0000;" x="198.600263" xlink:href="#mdb0e9cc5a1" y="269.935203"/>
     <use style="fill:#ff0000;stroke:#ff0000;" x="200.954368" xlink:href="#mdb0e9cc5a1" y="265.852793"/>
     <use style="fill:#ff0000;stroke:#ff0000;" x="203.308472" xlink:href="#mdb0e9cc5a1" y="261.468001"/>
     <use style="fill:#ff0000;stroke:#ff0000;" x="205.662577" xlink:href="#mdb0e9cc5a1" y="256.780802"/>
     <use style="fill:#ff0000;stroke:#ff0000;" x="208.016681" xlink:href="#mdb0e9cc5a1" y="251.791193"/>
     <use style="fill:#ff0000;stroke:#ff0000;" x="210.370786" xlink:href="#mdb0e9cc5a1" y="246.499206"/>
     <use style="fill:#ff0000;stroke:#ff0000;" x="212.72489" xlink:href="#mdb0e9cc5a1" y="240.90479"/>
     <use style="fill:#ff0000;stroke:#ff0000;" x="215.078995" xlink:href="#mdb0e9cc5a1" y="235.008"/>
     <use style="fill:#ff0000;stroke:#ff0000;" x="217.433099" xlink:href="#mdb0e9cc5a1" y="228.808814"/>
     <use style="fill:#ff0000;stroke:#ff0000;" x="219.787204" xlink:href="#mdb0e9cc5a1" y="222.307189"/>
     <use style="fill:#ff0000;stroke:#ff0000;" x="222.141308" xlink:href="#mdb0e9cc5a1" y="215.503196"/>
     <use style="fill:#ff0000;stroke:#ff0000;" x="224.495412" xlink:href="#mdb0e9cc5a1" y="208.396783"/>
     <use style="fill:#ff0000;stroke:#ff0000;" x="226.849517" xlink:href="#mdb0e9cc5a1" y="200.988001"/>
     <use style="fill:#ff0000;stroke:#ff0000;" x="229.203621" xlink:href="#mdb0e9cc5a1" y="193.276813"/>
     <use style="fill:#ff0000;stroke:#ff0000;" x="231.557726" xlink:href="#mdb0e9cc5a1" y="185.263182"/>
     <use style="fill:#ff0000;stroke:#ff0000;" x="233.91183" xlink:href="#mdb0e9cc5a1" y="176.94721"/>
     <use style="fill:#ff0000;stroke:#ff0000;" x="236.265935" xlink:href="#mdb0e9cc5a1" y="168.328786"/>
     <use style="fill:#ff0000;stroke:#ff0000;" x="238.620039" xlink:href="#mdb0e9cc5a1" y="159.408002"/>
     <use style="fill:#ff0000;stroke:#ff0000;" x="240.974144" xlink:href="#mdb0e9cc5a1" y="150.184822"/>
     <use style="fill:#ff0000;stroke:#ff0000;" x="243.328248" xlink:href="#mdb0e9cc5a1" y="140.659208"/>
     <use style="fill:#ff0000;stroke:#ff0000;" x="245.682353" xlink:href="#mdb0e9cc5a1" y="130.831179"/>
     <use style="fill:#ff0000;stroke:#ff0000;" x="248.036457" xlink:href="#mdb0e9cc5a1" y="120.700772"/>
     <use style="fill:#ff0000;stroke:#ff0000;" x="250.390561" xlink:href="#mdb0e9cc5a1" y="110.267987"/>
     <use style="fill:#ff0000;stroke:#ff0000;" x="252.744666" xlink:href="#mdb0e9cc5a1" y="99.532823"/>
     <use style="fill:#ff0000;stroke:#ff0000;" x="255.09877" xlink:href="#mdb0e9cc5a1" y="88.495226"/>
     <use style="fill:#ff0000;stroke:#ff0000;" x="257.452875" xlink:href="#mdb0e9cc5a1" y="77.155196"/>
     <use style="fill:#ff0000;stroke:#ff0000;" x="259.806979" xlink:href="#mdb0e9cc5a1" y="65.512787"/>
    </g>
   </g>
   <g id="patch_3">
    <path d="M 57.6 307.584 
L 57.6 41.472 
" style="fill:none;stroke:#000000;stroke-linecap:square;stroke-linejoin:miter;stroke-width:0.8;"/>
   </g>
   <g id="patch_4">
    <path d="M 414.72 307.584 
L 414.72 41.472 
" style="fill:none;stroke:#000000;stroke-linecap:square;stroke-linejoin:miter;stroke-width:0.8;"/>
   </g>
   <g id="patch_5">
    <path d="M 57.6 307.584 
L 414.72 307.584 
" style="fill:none;stroke:#000000;stroke-linecap:square;stroke-linejoin:miter;stroke-width:0.8;"/>
   </g>
   <g id="patch_6">
    <path d="M 57.6 41.472 
L 414.72 41.472 
" style="fill:none;stroke:#000000;stroke-linecap:square;stroke-linejoin:miter;stroke-width:0.8;"/>
   </g>
   <g id="legend_1">
    <g id="patch_7">
     <path d="M 330.530938 78.82825 
L 407.72 78.82825 
Q 409.72 78.82825 409.72 76.82825 
L 409.72 48.472 
Q 409.72 46.472 407.72 46.472 
L 330.530938 46.472 
Q 328.530938 46.472 328.530938 48.472 
L 328.530938 76.82825 
Q 328.530938 78.82825 330.530938 78.82825 
z
" style="fill:#ffffff;opacity:0.8;stroke:#cccccc;stroke-linejoin:miter;"/>
    </g>
    <g id="line2d_17"/>
    <g id="line2d_18">
     <g>
      <use style="fill:#ff0000;stroke:#ff0000;" x="342.530938" xlink:href="#mdb0e9cc5a1" y="54.570437"/>
     </g>
    </g>
    <g id="text_16">
     <!-- 오리지널 데이터 -->
     <defs>
      <path d="M 4.984375 -17.671875 
L 4.984375 70.515625 
L 54.984375 70.515625 
L 54.984375 -17.671875 
z
M 10.59375 -12.109375 
L 49.421875 -12.109375 
L 49.421875 64.890625 
L 10.59375 64.890625 
z
" id="DejaVuSans-50724"/>
      <path d="M 4.984375 -17.671875 
L 4.984375 70.515625 
L 54.984375 70.515625 
L 54.984375 -17.671875 
z
M 10.59375 -12.109375 
L 49.421875 -12.109375 
L 49.421875 64.890625 
L 10.59375 64.890625 
z
" id="DejaVuSans-47532"/>
      <path d="M 4.984375 -17.671875 
L 4.984375 70.515625 
L 54.984375 70.515625 
L 54.984375 -17.671875 
z
M 10.59375 -12.109375 
L 49.421875 -12.109375 
L 49.421875 64.890625 
L 10.59375 64.890625 
z
" id="DejaVuSans-51648"/>
      <path d="M 4.984375 -17.671875 
L 4.984375 70.515625 
L 54.984375 70.515625 
L 54.984375 -17.671875 
z
M 10.59375 -12.109375 
L 49.421875 -12.109375 
L 49.421875 64.890625 
L 10.59375 64.890625 
z
" id="DejaVuSans-45328"/>
      <path id="DejaVuSans-32"/>
      <path d="M 4.984375 -17.671875 
L 4.984375 70.515625 
L 54.984375 70.515625 
L 54.984375 -17.671875 
z
M 10.59375 -12.109375 
L 49.421875 -12.109375 
L 49.421875 64.890625 
L 10.59375 64.890625 
z
" id="DejaVuSans-45936"/>
      <path d="M 4.984375 -17.671875 
L 4.984375 70.515625 
L 54.984375 70.515625 
L 54.984375 -17.671875 
z
M 10.59375 -12.109375 
L 49.421875 -12.109375 
L 49.421875 64.890625 
L 10.59375 64.890625 
z
" id="DejaVuSans-51060"/>
      <path d="M 4.984375 -17.671875 
L 4.984375 70.515625 
L 54.984375 70.515625 
L 54.984375 -17.671875 
z
M 10.59375 -12.109375 
L 49.421875 -12.109375 
L 49.421875 64.890625 
L 10.59375 64.890625 
z
" id="DejaVuSans-53552"/>
     </defs>
     <g transform="translate(360.530938 58.070437)scale(0.1 -0.1)">
      <use xlink:href="#DejaVuSans-50724"/>
      <use x="60.009766" xlink:href="#DejaVuSans-47532"/>
      <use x="120.019531" xlink:href="#DejaVuSans-51648"/>
      <use x="180.029297" xlink:href="#DejaVuSans-45328"/>
      <use x="240.039062" xlink:href="#DejaVuSans-32"/>
      <use x="271.826172" xlink:href="#DejaVuSans-45936"/>
      <use x="331.835938" xlink:href="#DejaVuSans-51060"/>
      <use x="391.845703" xlink:href="#DejaVuSans-53552"/>
     </g>
    </g>
    <g id="line2d_19">
     <path d="M 332.530938 69.248562 
L 352.530938 69.248562 
" style="fill:none;stroke:#1f77b4;stroke-linecap:square;stroke-width:1.5;"/>
    </g>
    <g id="line2d_20"/>
    <g id="text_17">
     <!-- 최적화된 그래프 -->
     <defs>
      <path d="M 4.984375 -17.671875 
L 4.984375 70.515625 
L 54.984375 70.515625 
L 54.984375 -17.671875 
z
M 10.59375 -12.109375 
L 49.421875 -12.109375 
L 49.421875 64.890625 
L 10.59375 64.890625 
z
" id="DejaVuSans-52572"/>
      <path d="M 4.984375 -17.671875 
L 4.984375 70.515625 
L 54.984375 70.515625 
L 54.984375 -17.671875 
z
M 10.59375 -12.109375 
L 49.421875 -12.109375 
L 49.421875 64.890625 
L 10.59375 64.890625 
z
" id="DejaVuSans-51201"/>
      <path d="M 4.984375 -17.671875 
L 4.984375 70.515625 
L 54.984375 70.515625 
L 54.984375 -17.671875 
z
M 10.59375 -12.109375 
L 49.421875 -12.109375 
L 49.421875 64.890625 
L 10.59375 64.890625 
z
" id="DejaVuSans-54868"/>
      <path d="M 4.984375 -17.671875 
L 4.984375 70.515625 
L 54.984375 70.515625 
L 54.984375 -17.671875 
z
M 10.59375 -12.109375 
L 49.421875 -12.109375 
L 49.421875 64.890625 
L 10.59375 64.890625 
z
" id="DejaVuSans-46108"/>
      <path d="M 4.984375 -17.671875 
L 4.984375 70.515625 
L 54.984375 70.515625 
L 54.984375 -17.671875 
z
M 10.59375 -12.109375 
L 49.421875 -12.109375 
L 49.421875 64.890625 
L 10.59375 64.890625 
z
" id="DejaVuSans-44536"/>
      <path d="M 4.984375 -17.671875 
L 4.984375 70.515625 
L 54.984375 70.515625 
L 54.984375 -17.671875 
z
M 10.59375 -12.109375 
L 49.421875 -12.109375 
L 49.421875 64.890625 
L 10.59375 64.890625 
z
" id="DejaVuSans-47000"/>
      <path d="M 4.984375 -17.671875 
L 4.984375 70.515625 
L 54.984375 70.515625 
L 54.984375 -17.671875 
z
M 10.59375 -12.109375 
L 49.421875 -12.109375 
L 49.421875 64.890625 
L 10.59375 64.890625 
z
" id="DejaVuSans-54532"/>
     </defs>
     <g transform="translate(360.530938 72.748562)scale(0.1 -0.1)">
      <use xlink:href="#DejaVuSans-52572"/>
      <use x="60.009766" xlink:href="#DejaVuSans-51201"/>
      <use x="120.019531" xlink:href="#DejaVuSans-54868"/>
      <use x="180.029297" xlink:href="#DejaVuSans-46108"/>
      <use x="240.039062" xlink:href="#DejaVuSans-32"/>
      <use x="271.826172" xlink:href="#DejaVuSans-44536"/>
      <use x="331.835938" xlink:href="#DejaVuSans-47000"/>
      <use x="391.845703" xlink:href="#DejaVuSans-54532"/>
     </g>
    </g>
   </g>
  </g>
 </g>
 <defs>
  <clipPath id="p1fd7e17329">
   <rect height="266.112" width="357.12" x="57.6" y="41.472"/>
  </clipPath>
 </defs>
</svg>
